<?xml version="1.0" encoding="UTF-8"?>
<svg id="Layer_1" xmlns="http://www.w3.org/2000/svg" version="1.1" viewBox="0 0 512 512">
  <!-- Generator: Adobe Illustrator 30.4.0, SVG Export Plug-In . SVG Version: 2.1.4 Build 226)  -->
  <defs>
    <style>
      .st0 {
        fill: #46bdbd;
      }
    </style>
  </defs>
  <path class="st0" d="M491.1,438.2c-.9-82.5-46.9-160.8-118.4-202.3-.9-43.7-13.7-87-37.4-123.9-20-31.4-47.4-56-78.8-75.2-31.4,19.6-58.8,43.7-79.3,75.2-23.7,36.9-36.9,80.2-37.8,123.9-36.9,21.4-68.3,52.8-88.8,90.6-20,36.4-29.2,76.5-29.6,117.5,36,19.6,75.6,31,116.6,31s82.5-10.9,118.4-31.9c35.5,21,77,31.9,118,31.9s80.6-11.4,116.6-30.5l.5-6.4ZM256.5,419.5c-58.3-38.3-94.3-102-96.6-171.7,60.1-30.1,133-30.1,193.1,0-2.7,69.7-38.3,133-96.6,171.7ZM266.5,67.4c50.6,37.8,82,95.2,86.1,158.5-26.9-12.3-56.5-19.1-86.6-20l.5-138.5ZM246.4,205.4c-30.1,1.4-59.2,8.2-86.6,20,4.1-63.3,35.5-120.7,86.6-158.5v138.5ZM140.3,258.7c2.3,31.4,11.4,61,25.1,88.4l-123,72.9c5.9-65.1,42.8-125.7,97.9-161.3ZM372.2,258.7c56,36,92,95.7,98.4,161.3l-123.4-72.9c13.7-26.9,22.3-56.9,25.1-88.4ZM52.4,437.3l123-72.9c15.9,25.5,36.9,48.3,62.4,66.1-57.4,30.1-126.2,32.3-185.4,6.8ZM359.4,454.6c-29.2-1.8-58.3-10-84.3-23.7,25.1-18.2,46-40.5,62-66.1l123,72.9c-31.4,13.2-66.1,19.1-100.7,16.9Z"/>
</svg>