<svg id="grenco_medical_logo" xmlns="http://www.w3.org/2000/svg" xmlns:xlink="http://www.w3.org/1999/xlink" width="221.086" height="62.019" viewBox="0 0 221.086 62.019">
  <defs>
    <clipPath id="clip-path">
      <rect id="Rectangle_21" data-name="Rectangle 21" width="221.086" height="62.019" fill="none"/>
    </clipPath>
  </defs>
  <g id="Group_22" data-name="Group 22" clip-path="url(#clip-path)">
    <path id="Path_95" data-name="Path 95" d="M66.531,56.8A33.907,33.907,0,0,0,49.769,28.173a33.851,33.851,0,0,0-5.286-17.535A33.84,33.84,0,0,0,33.331,0,35.37,35.37,0,0,0,22.112,10.638a33.918,33.918,0,0,0-5.35,17.535A33.372,33.372,0,0,0,4.19,41,34.976,34.976,0,0,0,0,57.635,34.493,34.493,0,0,0,16.5,62.02a33.351,33.351,0,0,0,16.762-4.514,33.114,33.114,0,0,0,16.7,4.514A34.983,34.983,0,0,0,66.467,57.7Zm-33.2-2.643a30.206,30.206,0,0,1-13.668-24.3A30.862,30.862,0,0,1,47,29.85a30.472,30.472,0,0,1-13.667,24.3M34.749,4.32A30.363,30.363,0,0,1,46.932,26.756a31.789,31.789,0,0,0-12.248-2.837ZM31.912,23.854a34.676,34.676,0,0,0-12.25,2.837A30.237,30.237,0,0,1,31.912,4.255ZM16.891,31.4A33.277,33.277,0,0,0,20.437,43.9L3.029,54.219A30.774,30.774,0,0,1,16.891,31.4m32.815,0A30.655,30.655,0,0,1,63.631,54.219L46.159,43.9A34.153,34.153,0,0,0,49.705,31.4M4.447,56.669,21.855,46.353A32.03,32.03,0,0,0,30.687,55.7a30.683,30.683,0,0,1-26.24.968M47.9,59.119a29.807,29.807,0,0,1-11.926-3.352,33.542,33.542,0,0,0,8.767-9.348L62.147,56.734A31.535,31.535,0,0,1,47.9,59.119" transform="translate(0 0)" fill="#42bebf"/>
    <path id="Path_96" data-name="Path 96" d="M60.093,5.919a7.359,7.359,0,0,1,2.845,2.616V5.255h7.1V28.39a13.021,13.021,0,0,1-1.268,5.794,9.635,9.635,0,0,1-3.86,4.133,12.513,12.513,0,0,1-6.459,1.536A13.43,13.43,0,0,1,50.1,37.424a9.167,9.167,0,0,1-3.657-6.583h7.019a3.366,3.366,0,0,0,1.58,2.1,5.767,5.767,0,0,0,3.075.768,4.829,4.829,0,0,0,3.508-1.266,5.443,5.443,0,0,0,1.309-4.05V25.109a7.9,7.9,0,0,1-2.865,2.638A8.666,8.666,0,0,1,55.8,28.763,9.51,9.51,0,0,1,50.6,27.29a10.18,10.18,0,0,1-3.676-4.2A14.007,14.007,0,0,1,45.576,16.8a13.879,13.879,0,0,1,1.349-6.272A10.056,10.056,0,0,1,50.6,6.376,9.616,9.616,0,0,1,55.8,4.923a8.918,8.918,0,0,1,4.3,1m1.371,6.729a4.99,4.99,0,0,0-7.186-.021A5.724,5.724,0,0,0,52.8,16.8a5.87,5.87,0,0,0,1.476,4.215,4.944,4.944,0,0,0,7.186.021,5.811,5.811,0,0,0,1.474-4.193,5.819,5.819,0,0,0-1.474-4.2" transform="translate(26.733 2.887)"/>
    <path id="Path_97" data-name="Path 97" d="M74.458,6.076a8.039,8.039,0,0,1,4.154-1.1v7.519H76.661a5.989,5.989,0,0,0-3.989,1.142q-1.33,1.142-1.33,4.008V28.4h-7.1V5.224h7.1V9.086a9.43,9.43,0,0,1,3.116-3.01" transform="translate(37.681 2.918)"/>
    <path id="Path_98" data-name="Path 98" d="M97.69,18.546H81.617a4.811,4.811,0,0,0,1.391,3.3,4.242,4.242,0,0,0,3.01,1.142,3.734,3.734,0,0,0,3.7-2.242h7.558a10.358,10.358,0,0,1-2.1,4.112,10.491,10.491,0,0,1-3.8,2.864,12.188,12.188,0,0,1-5.107,1.039A12.439,12.439,0,0,1,80.2,27.31a10.353,10.353,0,0,1-4.154-4.154,12.826,12.826,0,0,1-1.495-6.313,12.942,12.942,0,0,1,1.476-6.313,10.207,10.207,0,0,1,4.131-4.155,12.536,12.536,0,0,1,6.107-1.453,12.387,12.387,0,0,1,5.98,1.412,10.145,10.145,0,0,1,4.092,4.03,12.239,12.239,0,0,1,1.475,6.105,17.912,17.912,0,0,1-.125,2.077M90.546,14.6A3.656,3.656,0,0,0,89.3,11.692a4.594,4.594,0,0,0-3.114-1.08,4.491,4.491,0,0,0-3.011,1.041A4.614,4.614,0,0,0,81.656,14.6Z" transform="translate(43.731 2.887)"/>
    <path id="Path_99" data-name="Path 99" d="M112.194,7.612a10.287,10.287,0,0,1,2.431,7.247V28.4h-7.062V15.815a5.086,5.086,0,0,0-1.2-3.613,4.718,4.718,0,0,0-6.48,0,5.079,5.079,0,0,0-1.2,3.613V28.4h-7.1V5.223h7.1V8.3a7.481,7.481,0,0,1,2.908-2.431,9.238,9.238,0,0,1,4.111-.893,8.414,8.414,0,0,1,6.5,2.638" transform="translate(53.713 2.917)"/>
    <path id="Path_100" data-name="Path 100" d="M109.8,10.53a10.225,10.225,0,0,1,4.112-4.154,12.3,12.3,0,0,1,6.043-1.453,11.5,11.5,0,0,1,7.289,2.283,10.8,10.8,0,0,1,3.843,6.438h-7.56a3.64,3.64,0,0,0-3.7-2.657,3.72,3.72,0,0,0-3.113,1.515,7.017,7.017,0,0,0-1.165,4.341,7.01,7.01,0,0,0,1.165,4.341,3.718,3.718,0,0,0,3.113,1.517,3.64,3.64,0,0,0,3.7-2.659h7.56a10.871,10.871,0,0,1-3.863,6.4,11.369,11.369,0,0,1-7.268,2.326,12.287,12.287,0,0,1-6.043-1.453,10.216,10.216,0,0,1-4.112-4.154,12.943,12.943,0,0,1-1.477-6.313A12.947,12.947,0,0,1,109.8,10.53" transform="translate(63.54 2.887)"/>
    <path id="Path_101" data-name="Path 101" d="M130,27.308a10.635,10.635,0,0,1-4.277-4.154,12.415,12.415,0,0,1-1.558-6.311,12.288,12.288,0,0,1,1.58-6.294,10.707,10.707,0,0,1,4.319-4.174,13.727,13.727,0,0,1,12.294,0,10.721,10.721,0,0,1,4.32,4.174,12.318,12.318,0,0,1,1.577,6.294,12.183,12.183,0,0,1-1.6,6.292,10.8,10.8,0,0,1-4.361,4.173,13.012,13.012,0,0,1-6.169,1.453A12.778,12.778,0,0,1,130,27.308m9.6-6.188a5.935,5.935,0,0,0,1.433-4.277,6.065,6.065,0,0,0-1.391-4.281,4.721,4.721,0,0,0-6.875-.019,6.1,6.1,0,0,0-1.371,4.3,6.166,6.166,0,0,0,1.352,4.277,4.365,4.365,0,0,0,3.383,1.495,4.632,4.632,0,0,0,3.47-1.495" transform="translate(72.831 2.887)"/>
    <path id="Path_102" data-name="Path 102" d="M82.461,26.125a4.485,4.485,0,0,1,1.853,1.864,6.236,6.236,0,0,1,.679,3.024v7.573H82.885V31.318a4.174,4.174,0,0,0-.95-2.943,3.341,3.341,0,0,0-2.567-1.019,3.431,3.431,0,0,0-2.65,1.066,4.385,4.385,0,0,0-.985,3.083v7.081h-2.11V31.318a4.173,4.173,0,0,0-.949-2.943,3.339,3.339,0,0,0-2.567-1.019,3.429,3.429,0,0,0-2.65,1.066,4.385,4.385,0,0,0-.985,3.083v7.081H64.338V25.738h2.134v1.852a4.227,4.227,0,0,1,1.7-1.547,5.163,5.163,0,0,1,2.358-.539,5.564,5.564,0,0,1,2.859.727,4.443,4.443,0,0,1,1.853,2.134,4.211,4.211,0,0,1,1.782-2.11,5.249,5.249,0,0,1,2.765-.75,5.619,5.619,0,0,1,2.673.622" transform="translate(37.738 14.959)" fill="#42bebf"/>
    <path id="Path_103" data-name="Path 103" d="M91.507,32.951H81.237a4.037,4.037,0,0,0,4.173,4.031,3.947,3.947,0,0,0,2.31-.644,3.416,3.416,0,0,0,1.3-1.725h2.3a5.51,5.51,0,0,1-2.063,3.013,6.227,6.227,0,0,1-3.846,1.161,6.491,6.491,0,0,1-3.27-.82,5.812,5.812,0,0,1-2.264-2.334,7.242,7.242,0,0,1-.819-3.5,7.342,7.342,0,0,1,.8-3.494,5.607,5.607,0,0,1,2.239-2.308,6.664,6.664,0,0,1,3.317-.809,6.457,6.457,0,0,1,3.237.8,5.519,5.519,0,0,1,2.167,2.193,6.475,6.475,0,0,1,.763,3.154,12.825,12.825,0,0,1-.07,1.29m-2.673-3.835a3.516,3.516,0,0,0-1.466-1.336,4.571,4.571,0,0,0-2.051-.457,3.949,3.949,0,0,0-2.754,1.031,4.2,4.2,0,0,0-1.3,2.861h8.112a3.935,3.935,0,0,0-.539-2.1" transform="translate(46.372 14.967)" fill="#42bebf"/>
    <path id="Path_104" data-name="Path 104" d="M89.016,30.233a5.8,5.8,0,0,1,2.191-2.308,6.055,6.055,0,0,1,3.13-.82,5.806,5.806,0,0,1,2.791.692A4.982,4.982,0,0,1,99.1,29.612v-6.8h2.158V40.163H99.1V37.748a4.973,4.973,0,0,1-1.875,1.886,5.573,5.573,0,0,1-2.908.738,5.835,5.835,0,0,1-5.3-3.211,7.37,7.37,0,0,1-.8-3.47,7.218,7.218,0,0,1,.8-3.459m9.5.95a4.154,4.154,0,0,0-1.583-1.653,4.486,4.486,0,0,0-4.373-.011,4.072,4.072,0,0,0-1.571,1.641,5.227,5.227,0,0,0-.585,2.532,5.346,5.346,0,0,0,.585,2.567,4.152,4.152,0,0,0,1.571,1.666,4.254,4.254,0,0,0,2.18.573,4.316,4.316,0,0,0,2.193-.573,4.138,4.138,0,0,0,1.583-1.666,5.294,5.294,0,0,0,.585-2.543,5.227,5.227,0,0,0-.585-2.532" transform="translate(51.747 13.381)" fill="#42bebf"/>
    <path id="Path_105" data-name="Path 105" d="M98.913,24.989a1.454,1.454,0,0,1,1.03-2.486,1.339,1.339,0,0,1,1,.422,1.5,1.5,0,0,1,0,2.064,1.339,1.339,0,0,1-1,.422,1.4,1.4,0,0,1-1.03-.422m2.061,15.356H98.84V27.5h2.134Z" transform="translate(57.77 13.199)" fill="#42bebf"/>
    <path id="Path_106" data-name="Path 106" d="M102.639,28.648a5.764,5.764,0,0,1,2.215-2.31,7.036,7.036,0,0,1,7.151.328,5.422,5.422,0,0,1,2.029,3.189h-2.3A3.294,3.294,0,0,0,110.46,28a3.948,3.948,0,0,0-2.358-.681,3.784,3.784,0,0,0-2.954,1.255,5.135,5.135,0,0,0-1.125,3.551,5.226,5.226,0,0,0,1.125,3.589,3.771,3.771,0,0,0,2.954,1.264,3.989,3.989,0,0,0,2.345-.655,3.331,3.331,0,0,0,1.288-1.875h2.3a5.666,5.666,0,0,1-2.063,3.153,6.179,6.179,0,0,1-3.87,1.184,6.366,6.366,0,0,1-3.248-.82,5.723,5.723,0,0,1-2.215-2.321,7.386,7.386,0,0,1-.8-3.517,7.268,7.268,0,0,1,.8-3.481" transform="translate(59.737 14.967)" fill="#42bebf"/>
    <path id="Path_107" data-name="Path 107" d="M111.609,28.647a5.8,5.8,0,0,1,2.191-2.308,6.009,6.009,0,0,1,3.106-.82,5.7,5.7,0,0,1,2.93.727,4.842,4.842,0,0,1,1.853,1.829V25.729h2.158V38.577H121.69V36.184a5.02,5.02,0,0,1-1.886,1.864,5.642,5.642,0,0,1-2.919.738,5.834,5.834,0,0,1-3.1-.842,5.921,5.921,0,0,1-2.18-2.369,7.37,7.37,0,0,1-.8-3.47,7.218,7.218,0,0,1,.8-3.459m9.5.95a4.154,4.154,0,0,0-1.583-1.653,4.486,4.486,0,0,0-4.373-.011,4.072,4.072,0,0,0-1.571,1.641,5.227,5.227,0,0,0-.585,2.532,5.346,5.346,0,0,0,.585,2.567,4.152,4.152,0,0,0,1.571,1.666,4.254,4.254,0,0,0,2.18.573,4.316,4.316,0,0,0,2.193-.573,4.138,4.138,0,0,0,1.583-1.666,5.294,5.294,0,0,0,.585-2.543,5.227,5.227,0,0,0-.585-2.532" transform="translate(64.999 14.967)" fill="#42bebf"/>
    <rect id="Rectangle_20" data-name="Rectangle 20" width="2.134" height="17.349" transform="translate(192.456 36.196)" fill="#42bebf"/>
  </g>
</svg>
